<svg fill="none" height="130" viewBox="0 0 350 130" width="350" xmlns="http://www.w3.org/2000/svg" xmlns:xlink="http://www.w3.org/1999/xlink"><clipPath id="a"><path d="m0 0h350v130h-350z"/></clipPath><g clip-path="url(#a)"><path d="m46.2401 83.2501c31.4499 13.13 68.1199.71 96.1799-18.63s51.18-45.28 79.82-63.749983l1.62-1-223.309951.0700002v54.9999828c2.800001 1.43 5.520001 3 8.130001 4.66 12.52005 7.96 23.89005 17.95 37.56005 23.65z" fill="#ff6b6b"/><path d="m242.63 23.49c-36.76 27-66.08 62.65-99.78 93.35-5 4.55-10.15 9-15.46 13.31h93.34l128.71-.06-.04-130.299961h-65.7c-14.541 6.323661-28.319 14.274361-41.07 23.699961z" fill="#fff8fa"/><path d="m242.63 23.4901c12.749-9.4146 26.524-17.35516 41.06-23.670032h-59.84l-1.62 1c-28.64 18.470032-51.76 44.420032-79.82 63.760032s-64.7199 31.8-96.1699 18.67c-13.67-5.7-25.04-15.69-37.54003-23.64-2.61-1.66-5.33-3.23-8.130002-4.61v75.2599l126.789932-.05c5.3-4.31 10.46-8.76 15.46-13.31 33.74-30.7599 63.05-66.4599 99.81-93.4099z" fill="#ffd7e2"/><path d="m130.22 81.3801h-83.6599v58.6799h83.6599z" fill="#a3785a"/><path d="m83.8201 81.3901h-37.26v58.6799h37.26z" fill="#f7bf74"/><path d="m113.41 81.3701h-8.18v6.67h8.18z" fill="#fff1d9"/><path d="m80.49 104.45h-69.58v35.56h69.58z" fill="#a3785a"/><path d="m41.9 104.46h-30.99v35.56h30.99z" fill="#f7bf74"/><path d="m67.0401 104.45h-8.8v6.41h8.8z" fill="#fff1d9"/><path d="m132.88 127.92s1.11-19.13 4.41-25.82c1.926-3.9617 4.788-7.3942 8.34-9.9999-3.266 4.9377-5.441 10.5149-6.38 16.3599-1.64 9.9 0 21 0 21z" fill="#388c77"/><path d="m135.3 133.69s-.08-5 2-15.4 14.11-14.35 14.11-14.35-9 8.57-9.57 15.15.83 10.38.83 10.38z" fill="#54b162"/><path d="m132 134s-3.2-16.14-1.87-28.05c1.33-11.9099 14.67-20.7898 14.67-20.7898s-10.22 12.42-10.8 24.4598c-.31 7.448.814 14.886 3.31 21.91z" fill="#54b162"/><path d="m130.61 130s-.9-12.35-6.12-19.25-5.94-7.61-5.94-7.61 7.72 4.49 12 11.92c2.675 4.747 4.436 9.954 5.19 15.35z" fill="#7dc581"/><path d="m128 140-3.42-14c-.039-.155-.042-.317-.011-.474.032-.157.098-.305.193-.433.096-.128.219-.233.361-.308.141-.075.297-.118.457-.125h20.56c.165-.002.328.034.477.105.149.072.28.176.382.305s.174.281.208.442c.035.161.033.328-.007.488l-3.11 13.86c-.052.23-.178.437-.359.588-.18.152-.405.241-.641.252l-14 .13c-.25.009-.495-.068-.693-.22-.199-.151-.339-.367-.397-.61z" fill="#fff"/><path d="m300.05 91.2102s-8.59 35.5598-9.36 43.1598-2.17 41.63-2.17 41.63l10.56 1s3-27.16 4.88-33.89 5.4-22.69 5.4-22.69l-8-27.5498z" fill="#0078fa"/><path d="m327.71 51.68s1.36 3.07 0 16.85-2.9 20.88-2.9 25.45.78 14.36 0 20.8-4.5 27.57-4.88 30-3 33.68-3 33.68l-10.13-1s-1.57-60.94-3.12-66-2.64-7.73-3.61-11.34 1.6-30.15 2.18-34.4l.58-4.25 7.17-15.61 8.13-5.08 6.15 3.22 2.72 4z" fill="#1c8ff7"/><path d="m309.37 56.3501-1.25 3.54.92 5-1.2 9.5s1 10.86 6.22 10.85 8.05-3.1 9-9.41c.762-4.7203 1.787-9.3942 3.07-14l-13.77-8z" fill="#d65050"/><path d="m321.69 41.9c1.35.9653 2.591 2.0752 3.7 3.31 1.18 1.5574 1.96 3.3808 2.27 5.31v1.16s-1.07-5.68-3.85-6.68c-1.745-.5591-3.596-.711-5.409-.444-1.813.2669-3.541.9456-5.051 1.984-3.67 2.42-6.14 5.66-7 8.69s-1.22 5.61-2 6.31c-.211.1954-.488.304-.775.304s-.564-.1086-.775-.304c0 0 3.14-10.77 5-13.34s2.2-3.2 2.2-3.2l9-3.72z" fill="#ff6b6b"/><path d="m320.19 40.9502c.495.1942.964.4459 1.4.75l.1.19c-3.098.2248-6.058 1.3705-8.5 3.29-4.4 3.29-5.36 3.92-5.36 3.92l3.33-6.19z" fill="#d65050"/><path d="m324 25.4.44.81c.169 1.3079.169 2.6321 0 3.94-.711 2.5118-1.804 4.8996-3.24 7.08-.141.1304-.32.2124-.51.234-.191.0216-.384-.0184-.55-.114l-6-4.25s-3.48-3.38-3.58-3.86-1.6-3.61-1.6-3.83 15.04-.01 15.04-.01z" fill="#3d2c56"/><path d="m309.36 37.8002 1.25 1.38.49 1.57s4.59.24 4.64-.39 1.25-3.87 1.25-4.3c-.443-.9084-1.07-1.7153-1.84-2.37-.15.04-5.79 4.11-5.79 4.11z" fill="#c66f7e"/><path d="m305.06 26.8802v2.08c0 .63-1.64 2.27-1.5 2.71s1.52 1.11 1.52 1.11 1.24 5.41 2.4 6.62 6.66-1.74 7.46-2.42l.8-.68c-.602 1.0464-1.403 1.9639-2.36 2.7-.788.5375-1.546 1.1184-2.27 1.74v2.17l-1.5 3.87s6.24-4.35 7.83-4.93 2.71-.9 2.71-.9v-3.59s-2.76-4.49-2.85-5.36l-.1-.87c.398-.2534.693-.6393.834-1.0894s.118-.9356-.064-1.3706c-.58-1.64-2.32-.87-2.85 0s-.29 1.55-.63 1.74-.72.44-1 0 0-1.35-.48-1.79-1.86-.58-1.93-1.74l-.08-1.16z" fill="#fb919f"/><path d="m324.72 26.1901s-7 .68-10.15.68-9.83-2.12-9.83-2.12-.78-11.89 10-11.89c13.46 0 9.98 13.33 9.98 13.33z" fill="#1c8ff7"/><path d="m313.77 26.8402s-8.19-3.33-9-3.72-6.73 1.54-6.73 2.19 2.26 2.32 3.61 2.45 12.12-.92 12.12-.92z" fill="#ff6b6b"/><path d="m307.14 35.3802 3.29-.44s-.68 1.59-1.64 1.84-1.65-1.4-1.65-1.4z" fill="#fff"/><path d="m305.48 66.4001-3.22-.58-1.26 12.77c.433.1617.9.208 1.356.1343.456-.0736.884-.2647 1.244-.5543 1.11-1.01 1.88-11.77 1.88-11.77z" fill="#0078fa"/><path d="m292.32 107.12 4.53-1.37c.289-.088.531-.287.674-.553.142-.266.173-.578.086-.867l-2.53-8.33c-.088-.2889-.287-.5312-.553-.6737s-.578-.1735-.867-.0863l-6.91 2.09c-.168.0513-.321.1406-.449.261-.128.1203-.226.2686-.287.4331s-.083.3408-.065.5153c.019.1745.077.3424.171.4906l4.91 7.66c.14.201.342.351.574.428.232.078.483.078.716.002z" fill="#533a71"/><path d="m279.34 40.13c2.559-.7716 5.32-.495 7.676.769 2.355 1.264 4.112 3.4117 4.884 5.971v.08l12.74 42.23c.099.325.132.6662.098 1.0042-.034.3379-.134.6658-.294.965-.161.2991-.379.5636-.642.7783-.264.2146-.567.3752-.892.4725l-13.86 4.18-.49.15c-.652.1897-1.353.1145-1.951-.2094-.597-.3239-1.042-.8703-1.239-1.5206l-12.77-42.31c-.771-2.5594-.495-5.3204.769-7.6758s3.412-4.1123 5.971-4.8842z" fill="#5ecccd"/><path d="m281.14 41.3c4.6-1.39 9.59 1.68 11.15 6.86v.08l12.38 41c.201.5852.166 1.2257-.097 1.7858-.263.56-.734.9956-1.313 1.2142l-12 3.61-.43.13c-.6.1376-1.23.0374-1.758-.2796-.527-.317-.912-.8261-1.072-1.4204l-12.4-41.09c-1.52-5.19.94-10.5 5.54-11.89z" fill="#46b2af"/><path d="m275.692 72.901-59.644 17.9963c-.361.1089-.739.1456-1.114.1081s-.739-.1485-1.072-.3266c-.332-.1782-.625-.42-.864-.7117s-.418-.6276-.526-.9884l-13.577-44.9964c-.575-1.9043-.369-3.9589.571-5.7118.94-1.7528 2.538-3.0604 4.443-3.635l50.788-15.3242c1.904-.5746 3.959-.3692 5.712.5711s3.06 2.5383 3.635 4.4427l13.577 44.9963c.219.7288.141 1.515-.219 2.1857-.36.6708-.971 1.1712-1.7 1.391z" fill="#46b2af"/><path d="m211.323 120.05 80.572-24.311-7.664-25.399-80.572 24.3108z" fill="#46b2af"/><path d="m278.455 72.0609-65.101 19.6428-1.843-6.108c-.052-.1723-.069-.3531-.052-.5321.018-.179.071-.3528.156-.5113s.201-.2988.34-.4127.3-.1993.472-.2513l62.516-18.8629c.348-.1049.723-.0674 1.043.1044.321.1717.559.4636.664.8115l1.843 6.108z" fill="#5ecccd"/><path d="m194.89 65.6102c2.559-.7716 5.32-.4949 7.676.769 2.355 1.264 4.112 3.4118 4.884 5.971v.08l12.74 42.2298c.099.325.132.666.098 1.004s-.134.666-.294.965c-.161.3-.379.564-.642.779-.264.214-.567.375-.892.472l-13.86 4.18-.49.15c-.325.099-.666.132-1.004.098-.338-.033-.666-.133-.965-.294s-.564-.379-.778-.642c-.215-.263-.376-.566-.473-.892l-12.74-42.2998c-.383-1.2679-.513-2.599-.382-3.9171s.521-2.5975 1.147-3.7649 1.476-2.2 2.501-3.0387 2.206-1.4671 3.474-1.8493z" fill="#5ecccd"/><path d="m196.69 66.78c4.6-1.39 9.59 1.68 11.15 6.86v.08l12.38 41c.201.585.166 1.226-.097 1.786s-.734.995-1.313 1.214l-12 3.61-.43.13c-.612.144-1.257.04-1.793-.29-.536-.329-.92-.858-1.067-1.47l-12.4-41.09c-1.49-5.12.97-10.44 5.57-11.83z" fill="#46b2af"/><path d="m301.68 95.8352-95.086 28.6898-.846-2.805 95.631-28.8545.697 2.3072c.021.0695.027.1427.019.2149-.009.0722-.033.1417-.07.2042-.037.0624-.087.1163-.147.1583-.059.0419-.127.0709-.198.0851z" fill="#533a71"/><path d="m220.56 128.78-4.56 1.37c-.289.087-.601.056-.867-.086-.266-.143-.465-.385-.553-.674l-2.5-8.39c-.087-.289-.056-.601.086-.867.143-.266.385-.465.674-.553l6.91-2.09c.168-.049.345-.059.518-.029.172.031.335.1.476.204.141.103.257.238.338.393.08.155.124.327.128.502l.14 9.1c.008.247-.065.49-.208.692-.142.202-.347.352-.582.428z" fill="#533a71"/><path d="m182.2 123.54s-1.8 12.67-4.37 18.8-15.06 33.17-15.06 33.17-5 .79-8.25-1.3-2.84-3.26-2.84-3.26 11.69-33.82 12.92-39.31-.84-20.65 0-25.85c.437-2.479.744-4.979.92-7.49z" fill="#0078fa"/><path d="m177.66 57.33c1.281 1.8554 2.011 4.0356 2.105 6.2884s-.452 4.4862-1.575 6.4416c-1.48 2.49-3.81 4.32-5.86 6.36s-3.93 4.54-4.07 7.43c-.15 3.07 1.7 6 1.38 9.07-.146 1.1835-.606 2.3063-1.333 3.2522-.726.9459-1.692 1.6805-2.797 2.1278 0-.67 0-1.37 0-2.13-.205-7.6839-1.116-15.3326-2.72-22.85-1.7-8.17.41-16.13 1.78-20.28.4-.137.807-.2506 1.22-.34 2.214-.4278 4.504-.2199 6.604.5994 2.101.8194 3.927 2.2168 5.266 4.0306z" fill="#0078fa"/><path d="m169 46.1201 2.3-1 9.13 3.31 5.86 13.27s1 32.34 1.44 36.4c.44 4.0599 11 26.8599 14.12 34.5899s6.59 42.32 6.59 42.32l-10.44 3.34-11-42.13s-14.71-18.55-18.77-24.92c-3.55-5.57-2.82-8.34-2.71-12.9999 1.105-.4473 2.071-1.1819 2.797-2.1278.727-.9459 1.187-2.0687 1.333-3.2522.32-3.06-1.53-6-1.38-9.07.14-2.89 2-5.39 4.07-7.43s4.38-3.87 5.86-6.36c1.158-1.9449 1.724-4.1851 1.63-6.4467-.095-2.2617-.846-4.4467-2.163-6.2882-1.316-1.8414-3.14-3.2595-5.25-4.0809-2.109-.8214-4.412-1.0105-6.627-.5442-.413.0894-.82.203-1.22.34.27-.81.51-1.49.69-2 .787-1.9434 2.078-3.6417 3.74-4.92z" fill="#1c8ff7"/><path d="m180.44 48.4801c.732 1.4844 1.547 2.9267 2.44 4.32 1.505 2.8481 2.654 5.8709 3.42 9 0 0-.45.45-1.55-1.87s-4.19-10.43-8.12-12.3c-2.375-1.1391-5-1.6586-7.63-1.51l2.64-2.31h2.4l4.25 2.3z" fill="#ff6b6b"/><path d="m183.33 20.15c-.86.74-1.23 1.9-1.94 2.78-1.05 1.1396-2.465 1.8785-4 2.09-2.473.4772-5.031.2627-7.39-.62.06-.16.13-.31.19-.46 1.54-3.42 4-1.93 6.83-2.32s5.28-2.19 7-2.84c.145-.071.303-.1101.465-.1147.161-.0047.321.0253.47.0878s.282.1562.392.2747c.109.1185.192.259.243.4122-.405-.0378-.813.0055-1.201.1275-.389.1219-.748.3199-1.059.5825z" fill="#533a71"/><path d="m177.42 25c1.535-.2115 2.95-.9504 4-2.09.71-.88 1.08-2 1.94-2.78.311-.2626.67-.4607 1.059-.5826.388-.1219.796-.1652 1.201-.1274.42.75.71 2 1.35 3.08 1.18 2.06 3.2 1.35 2.95 4.77-.017.9136-.358 1.7914-.962 2.4766-.605.6852-1.434 1.133-2.338 1.2634 0 0-12.74 6-13.19 6.28s-1.62-1.41-3.22-3.57-1.55-6-.2-9.33c2.366.883 4.931 1.0941 7.41.61z" fill="#3d2c56"/><path d="m179.76 45.91v-3.66l-4.67-5h-1.69l-.82 2.39.42 3.36s2.66 2.17 2.85 2.17 3.89 1 3.89 1z" fill="#c66f7e"/><path d="m186.93 28.57s-1.22 9-1.76 10.73c-.465.9821-1.125 1.8592-1.94 2.5779s-1.767 1.2638-2.8 1.6021c-1.49.27-3.25-.94-4.88-2.84l-1.63-1.9c.323 1.7464 1.068 3.3875 2.17 4.78 1.028 1.0604 2.278 1.8801 3.66 2.4l.68 2.57s-6.23-4.33-8.27-4.47l-.52-.2c.325-1.9309.512-3.8825.56-5.84l-.1-1.73c-.521-.4822-.907-1.0917-1.121-1.7685s-.248-1.3976-.099-2.0915c.61-2.24 2.18.41 2.18.41s.56.05.66-.1-.2-1.78.3-2.29 1.73-1.12 2-2.34.15-1.47.61-1.83 6.25.2 7.42 0 3.04 1.21 2.88 2.33z" fill="#fb919f"/><path d="m186.3 67.4802h-5s.2 11.79 1.49 12.82 4.14.58 4.14.58v-13.4z" fill="#0078fa"/><path d="m164 71.44c-.282-1.3047-.495-2.6232-.64-3.95l3.5.83c-.06.52 4.46 8.49 4.46 8.49-2.49-2.03-6.51-1.81-7.32-5.37z" fill="#d65050"/><path d="m176.87 86.4601c-1.59-2.2439-2.891-4.6799-3.87-7.25l8.31-3.35 2.15 3.92c-1.674 2.688-3.925 4.9699-6.59 6.68z" fill="#c66f7e"/><path d="m183.49 79.78.66 1.2 15.62 17.31s3.27-.44 3.75.16 1 1.76 1.76 2.25.73.85 0 1-1.62-1-2.08-.92-.63 0-.63 0c.358.965.803 1.896 1.33 2.78.41.43 2.63 1 2.92 1.4s.46.82.19 1-7.13.61-8.77-.24-2.35-4.76-2.35-4.76-16.89-11.86-19.02-14.5c2.676-1.7066 4.938-3.9887 6.62-6.68z" fill="#fb919f"/><path d="m163.4 67.4902c-.468-3.6042-.431-7.256.11-10.85.63-2.85 1.62-7.84 7.44-6.49 5.54 1.29 6.32 6.4 6.84 8.76s5.37 17.25 5.15 17.65-9.94 4.44-9.94 4.44-6.19-12.14-6.13-12.67z" fill="#ff6b6b"/><path d="m178.2 39.3101s.64 1.66 1.87 1.87 1.8-1.16 1.8-1.16v-.13z" fill="#fff"/><path d="m305 78.59 2.65-6.59 10.5 1.49s-3.2 7.16-5.77 11.57c-2.095-1.2344-4.007-2.7558-5.68-4.52-.59-.62-1.14-1.28-1.7-1.95z" fill="#c66f7e"/><path d="m277.87 98.6501c.57-.85 3.13-1.86 4.7-2.54 1.369-.4636 2.796-.7329 4.24-.8l17.19-14.12 1-2.6c.54.67 1.09 1.33 1.67 2 1.673 1.7642 3.585 3.2856 5.68 4.52-.597 1.1653-1.362 2.2367-2.27 3.18-2.24 1.78-16.51 8.69-16.51 8.69s-3.42 4.5599-4.91 5.4099-7 1.07-7 1.07c-.336.289-.767.442-1.21.43-.78 0-1.32-1.27-1.32-1.27s3.47-2.8099 3.31-3.5699-1 0-2.42.43-2.72.02-2.15-.83z" fill="#fb919f"/><path d="m321.69 47.7802c-6.14-2.54-11.74 2.22-12.69 6.63-.446 1.8005-.754 3.6325-.92 5.48l3.28-4.38-5.43 17.49c2.153 1.8176 4.616 3.2334 7.27 4.18 1.887.7222 3.867 1.1767 5.88 1.35 0 0 7-14.69 7.34-18.11s-.37-10.84-4.73-12.64z" fill="#ff6b6b"/><path d="m41.9201 89.76h-2.42v40.43h2.42z" fill="#fff"/><path d="m58.21 91.9401c-.9401.6198-1.9463 1.1329-3 1.53l-1 .35-.17.05c-1.929.6149-3.9108 1.05-5.92 1.3h-.28l-.73.09c-1.993.2103-3.9959.3138-6 .31h-1.11c-1.66 0-3.18-.11-4.55-.25l-1.06-.12h-.1c-2.1453-.2447-4.2619-.6968-6.32-1.35-.45-.15-.86-.3-1.24-.45-1.0277-.359-2.0134-.8284-2.94-1.4-.1845-.1236-.3382-.288-.4492-.4805-.111-.1924-.1762-.4078-.1908-.6295-.0145-.2148.0197-.4302.1-.63.45-1.14 1.37-3.39 3.15-7.34 2.38-5.28 4.27-15 4.89-18.36.0611-.3372.2388-.6422.502-.8616.2633-.2194.5954-.3392.938-.3384h16.52c.3427-.0008.6748.119.9381.3384.2632.2194.4409.5244.5019.8616.62 3.38 2.52 13.08 4.9 18.36 1.7901 4 2.71 6.2 3.16 7.34.1074.3004.1127.6279.015.9316-.0976.3037-.2927.5668-.555.7484z" fill="#ffb942"/><g fill="#f4a025"><path d="m34.3501 95.4901c.0381.9308-.2922 1.8391-.9193 2.528s-1.5005 1.1028-2.4307 1.152c-.9338-.0416-1.8133-.4508-2.4465-1.1383s-.9688-1.5976-.9335-2.5317c.0614-.5463.1752-1.0855.34-1.61-.45 1.1-1.89 4-3.92 2.89-2.59-1.46-.87-5.9-.87-5.9.0107.2217.0722.438.1797.6322.1075.1941.2581.361.4403.4878 1.2883.8305 2.6847 1.48 4.15 1.93 2.0839.6608 4.2274 1.1163 6.4 1.36.01.03.01.12.01.2z"/><path d="m41.1001 95.6102c.0154.4583-.0626.9149-.2292 1.342-.1666.4272-.4184.8159-.74 1.1427s-.7064.5847-1.1308.7581c-.4245.1733-.8798.2585-1.3382.2504-.4584-.0082-.9104-.1095-1.3284-.2978-.418-.1884-.7934-.4598-1.1032-.7978s-.5476-.7355-.6989-1.1683-.213-.8919-.1813-1.3493c0-.08 0-.17 0-.25 2.2039.2567 4.4212.3802 6.64.37z"/><path d="m47.8501 95.4902c.0317.4574-.03.9165-.1814 1.3493-.1513.4328-.3891.8303-.6989 1.1683-.3098.3379-.6851.6094-1.1032.7977-.418.1884-.87.2897-1.3284.2979-.4584.0081-.9137-.0771-1.3381-.2505-.4245-.1733-.8092-.4313-1.1309-.758-.3216-.3268-.5734-.7156-.74-1.1427-.1666-.4272-.2446-.8838-.2291-1.342 2.2527.0053 4.5036-.1283 6.74-.4.01.09.01.18.01.28z"/><path d="m59.4501 95.4802c-.79 1.77-3.15 2.79-5.17-1.58.2178.4983.3302 1.0362.33 1.58.0443.47-.0099.944-.1594 1.3918-.1494.4477-.3907.8593-.7084 1.2085-.3177.3491-.7049.628-1.1366.8188-.4317.1909-.8986.2895-1.3706.2895s-.9389-.0986-1.3706-.2895c-.4318-.1908-.8189-.4697-1.1366-.8188-.3177-.3492-.559-.7608-.7084-1.2085-.1495-.4478-.2038-.9218-.1594-1.3918 0-.09 0-.19 0-.28 2.164-.2519 4.2977-.7175 6.37-1.39 1.4111-.4412 2.7565-1.0701 4-1.87.2705-.1817.4719-.4493.5717-.7596.0998-.3102.0921-.645-.0217-.9504.11.31 1.42 3.56.67 5.25z"/><path d="m31.5101 82.5c-2.1 6.66-3.56 11.38-3.56 11.38-.45-.15-.86-.3-1.24-.45.456-.5024.8707-1.0408 1.24-1.61 2.55-3.93 5.58-23.23 5.75-24.21s-.1 8.23-2.19 14.89z"/><path d="m37.3201 70.89c-.13 1.37-1.69 16-1.9 24.47l-1.06-.12h-.1c1.08-8.24 3.21-25.89 3.06-24.35z"/><path d="m41.1301 95.61h-1.13c.41-9 .93-24.62 1-27.34-.09 2.73-.35 18.5.13 27.34z"/><path d="m45.4601 72.7399c.31.8.83 13.79 2.69 22.43h-.28l-.73.09c-.84-9.16-1.98-23.26-1.68-22.52z"/><path d="m55.1901 93.4701-1 .35-.17.05c-2.87-11.15-6.8-26.78-5.69-24.75.98 1.7 3.56 16.01 6.86 24.35z"/></g></g></svg>